<svg width="16" height="12" viewBox="0 0 16 12" fill="none" xmlns="http://www.w3.org/2000/svg">
<path d="M14.161 0.310517C14.2603 0.212203 14.3788 0.134101 14.5095 0.0807821C14.6403 0.0274634 14.7807 0 14.9225 0C15.0643 0 15.2047 0.0274634 15.3354 0.0807821C15.4662 0.134101 15.5847 0.212203 15.6839 0.310517C16.1 0.718546 16.1058 1.37789 15.6985 1.79297L7.09759 11.6619C6.99994 11.766 6.88143 11.8496 6.74933 11.9077C6.61723 11.9658 6.4743 11.9972 6.32929 11.9998C6.18428 12.0025 6.04024 11.9764 5.90599 11.9231C5.77173 11.8699 5.65007 11.7906 5.54847 11.6901L0.314904 6.54248C0.113063 6.34269 0 6.07402 0 5.7942C0 5.51437 0.113063 5.24571 0.314904 5.04591C0.414173 4.94759 0.532652 4.86949 0.663403 4.81617C0.794155 4.76285 0.934552 4.73539 1.07637 4.73539C1.2182 4.73539 1.35859 4.76285 1.48934 4.81617C1.6201 4.86949 1.73857 4.94759 1.83784 5.04591L6.27721 9.4128L14.1319 0.341578C14.141 0.330667 14.1507 0.320294 14.161 0.310517Z" fill="white"/>
</svg>
