<svg width="11" height="12" viewBox="0 0 11 12" fill="none" xmlns="http://www.w3.org/2000/svg">
<path d="M2.75003 0C2.60416 0 2.46426 0.0574674 2.36112 0.15976C2.25797 0.262053 2.20002 0.400791 2.20002 0.545455C2.20002 0.690118 2.25797 0.828857 2.36112 0.931149C2.46426 1.03344 2.60416 1.09091 2.75003 1.09091H7.15008C7.29595 1.09091 7.43584 1.03344 7.53899 0.931149C7.64213 0.828857 7.70008 0.690118 7.70008 0.545455C7.70008 0.400791 7.64213 0.262053 7.53899 0.15976C7.43584 0.0574674 7.29595 0 7.15008 0L2.75003 0ZM0 7.09091C0 5.78894 0.521522 4.54029 1.44984 3.61966C2.37815 2.69902 3.63722 2.18182 4.95005 2.18182C6.26289 2.18182 7.52195 2.69902 8.45027 3.61966C9.37858 4.54029 9.9001 5.78894 9.9001 7.09091C9.9001 8.39288 9.37858 9.64153 8.45027 10.5622C7.52195 11.4828 6.26289 12 4.95005 12C3.63722 12 2.37815 11.4828 1.44984 10.5622C0.521522 9.64153 0 8.39288 0 7.09091ZM4.40005 8.18182C4.40005 8.32648 4.45799 8.46522 4.56114 8.56751C4.66429 8.66981 4.80418 8.72727 4.95005 8.72727C5.09592 8.72727 5.23582 8.66981 5.33896 8.56751C5.44211 8.46522 5.50006 8.32648 5.50006 8.18182V4.90909C5.50006 4.76443 5.44211 4.62569 5.33896 4.5234C5.23582 4.4211 5.09592 4.36364 4.95005 4.36364C4.80418 4.36364 4.66429 4.4211 4.56114 4.5234C4.45799 4.62569 4.40005 4.76443 4.40005 4.90909V8.18182ZM10.8395 4.20327C10.7365 4.30567 10.5967 4.36332 10.4509 4.36352C10.305 4.36372 10.1651 4.30648 10.0618 4.20436L8.95959 3.11564C8.907 3.06539 8.86501 3.00526 8.8361 2.93876C8.80718 2.87225 8.79191 2.8007 8.79117 2.72828C8.79044 2.65586 8.80425 2.58402 8.83181 2.51695C8.85937 2.44988 8.90012 2.38892 8.95169 2.33764C9.00326 2.28635 9.06461 2.24576 9.13216 2.21824C9.19971 2.19072 9.27211 2.17682 9.34514 2.17734C9.41817 2.17787 9.49036 2.19281 9.5575 2.2213C9.62464 2.24979 9.68539 2.29125 9.7362 2.34327L10.8384 3.432C10.9417 3.53414 10.9998 3.67278 11 3.81741C11.0002 3.96205 10.9425 4.10084 10.8395 4.20327Z" fill="#A0A0A0"/>
</svg>
