<svg width="12" height="13" viewBox="0 0 12 13" fill="none" xmlns="http://www.w3.org/2000/svg">
<path d="M4.8 2.2001H7.2C7.2 1.88184 7.07357 1.57661 6.84853 1.35157C6.62348 1.12653 6.31826 1.0001 6 1.0001C5.68174 1.0001 5.37652 1.12653 5.15147 1.35157C4.92643 1.57661 4.8 1.88184 4.8 2.2001ZM3.9 2.2001C3.9 1.92432 3.95432 1.65125 4.05985 1.39646C4.16539 1.14168 4.32007 0.910177 4.51508 0.715174C4.71008 0.52017 4.94158 0.365486 5.19637 0.259951C5.45115 0.154416 5.72422 0.100098 6 0.100098C6.27578 0.100098 6.54885 0.154416 6.80364 0.259951C7.05842 0.365486 7.28992 0.52017 7.48492 0.715174C7.67993 0.910177 7.83461 1.14168 7.94015 1.39646C8.04568 1.65125 8.1 1.92432 8.1 2.2001H11.55C11.6693 2.2001 11.7838 2.24751 11.8682 2.3319C11.9526 2.41629 12 2.53075 12 2.6501C12 2.76945 11.9526 2.8839 11.8682 2.9683C11.7838 3.05269 11.6693 3.1001 11.55 3.1001H10.758L10.056 10.3667C10.0022 10.9235 9.74283 11.4402 9.32861 11.8162C8.91439 12.1921 8.37499 12.4003 7.8156 12.4001H4.1844C3.62512 12.4002 3.08586 12.1919 2.67177 11.816C2.25768 11.4401 1.99844 10.9234 1.9446 10.3667L1.242 3.1001H0.45C0.330653 3.1001 0.216193 3.05269 0.131802 2.9683C0.0474105 2.8839 0 2.76945 0 2.6501C0 2.53075 0.0474105 2.41629 0.131802 2.3319C0.216193 2.24751 0.330653 2.2001 0.45 2.2001H3.9ZM5.1 5.0501C5.1 4.93075 5.05259 4.81629 4.9682 4.7319C4.88381 4.64751 4.76935 4.6001 4.65 4.6001C4.53065 4.6001 4.41619 4.64751 4.3318 4.7319C4.24741 4.81629 4.2 4.93075 4.2 5.0501V9.5501C4.2 9.66945 4.24741 9.78391 4.3318 9.8683C4.41619 9.95269 4.53065 10.0001 4.65 10.0001C4.76935 10.0001 4.88381 9.95269 4.9682 9.8683C5.05259 9.78391 5.1 9.66945 5.1 9.5501V5.0501ZM7.35 4.6001C7.46935 4.6001 7.58381 4.64751 7.6682 4.7319C7.75259 4.81629 7.8 4.93075 7.8 5.0501V9.5501C7.8 9.66945 7.75259 9.78391 7.6682 9.8683C7.58381 9.95269 7.46935 10.0001 7.35 10.0001C7.23065 10.0001 7.11619 9.95269 7.0318 9.8683C6.94741 9.78391 6.9 9.66945 6.9 9.5501V5.0501C6.9 4.93075 6.94741 4.81629 7.0318 4.7319C7.11619 4.64751 7.23065 4.6001 7.35 4.6001ZM2.8404 10.2803C2.87276 10.6143 3.02835 10.9243 3.27682 11.1498C3.5253 11.3753 3.84885 11.5002 4.1844 11.5001H7.8156C8.15115 11.5002 8.4747 11.3753 8.72318 11.1498C8.97165 10.9243 9.12724 10.6143 9.1596 10.2803L9.8544 3.1001H2.1456L2.8404 10.2803Z" fill="#060606"/>
</svg>
