<svg width="10" height="10" viewBox="0 0 10 10" fill="none" xmlns="http://www.w3.org/2000/svg">
<path d="M5 0C2.23884 0 0 2.23884 0 5C0 7.76116 2.23884 10 5 10C7.76116 10 10 7.76116 10 5C10 2.23884 7.76116 0 5 0ZM5.24888 7.42411L5.25112 7.7779C5.25112 7.82701 5.21094 7.8683 5.16183 7.8683H4.84487C4.79576 7.8683 4.75558 7.82812 4.75558 7.77902V7.42857C3.76451 7.35491 3.29799 6.79018 3.24777 6.17634C3.2433 6.12388 3.2846 6.07924 3.33705 6.07924H3.85268C3.89621 6.07924 3.93415 6.11049 3.94085 6.1529C3.99777 6.5067 4.27344 6.77121 4.76786 6.83705V5.24442L4.49219 5.17411C3.90848 5.0346 3.35268 4.67076 3.35268 3.91629C3.35268 3.10268 3.97098 2.66518 4.76116 2.58817V2.21987C4.76116 2.17076 4.80134 2.13058 4.85045 2.13058H5.16406C5.21317 2.13058 5.25335 2.17076 5.25335 2.21987V2.58482C6.01786 2.66183 6.59152 3.10826 6.65848 3.80357C6.66406 3.85603 6.62277 3.90179 6.5692 3.90179H6.06808C6.02344 3.90179 5.98549 3.8683 5.97991 3.82478C5.93527 3.49888 5.67411 3.23326 5.24888 3.17522V4.67411L5.53237 4.73996C6.25558 4.91853 6.74777 5.26451 6.74777 6.03906C6.74777 6.87946 6.12277 7.34821 5.24888 7.42411ZM4.04688 3.86496C4.04688 4.14844 4.2221 4.3683 4.59933 4.50446C4.65179 4.52567 4.70424 4.54241 4.76674 4.56027V3.17634C4.35491 3.22879 4.04688 3.45982 4.04688 3.86496ZM5.3471 5.37388C5.31585 5.36719 5.2846 5.35938 5.24888 5.34933V6.84152C5.72433 6.79911 6.05246 6.53795 6.05246 6.10045C6.05246 5.75781 5.875 5.5346 5.3471 5.37388Z" fill="#A0A0A0"/>
</svg>
