<svg width="15" height="15" viewBox="0 0 15 15" fill="none" xmlns="http://www.w3.org/2000/svg">
<path d="M13.9602 0.48621C13.312 -0.16207 12.264 -0.16207 11.6158 0.48621L10.7248 1.37427L13.6228 4.27229L14.5138 3.38127C15.1621 2.73299 15.1621 1.68509 14.5138 1.0368L13.9602 0.48621ZM5.10336 6.99862C4.92279 7.17919 4.78366 7.4012 4.70373 7.6469L3.82752 10.2755C3.74167 10.5301 3.80976 10.8113 3.99921 11.0037C4.18866 11.1962 4.46988 11.2613 4.72742 11.1754L7.35606 10.2992C7.5988 10.2163 7.82081 10.0802 8.00434 9.8996L12.9567 4.94425L10.0558 2.04327L5.10336 6.99862ZM2.84178 1.73837C1.27288 1.73837 0 3.01125 0 4.58015V12.1582C0 13.7271 1.27288 15 2.84178 15H10.4199C11.9888 15 13.2616 13.7271 13.2616 12.1582V9.31644C13.2616 8.79249 12.8383 8.36918 12.3144 8.36918C11.7904 8.36918 11.3671 8.79249 11.3671 9.31644V12.1582C11.3671 12.6822 10.9438 13.1055 10.4199 13.1055H2.84178C2.31783 13.1055 1.89452 12.6822 1.89452 12.1582V4.58015C1.89452 4.05619 2.31783 3.63289 2.84178 3.63289H5.68356C6.20751 3.63289 6.63082 3.20958 6.63082 2.68563C6.63082 2.16168 6.20751 1.73837 5.68356 1.73837H2.84178Z" fill="#060606"/>
</svg>
