<svg width="22" height="20" viewBox="0 0 22 20" fill="none" xmlns="http://www.w3.org/2000/svg">
<path d="M21.1208 9.07081C21.3558 8.89576 21.5301 8.65157 21.6193 8.37247C21.7085 8.09337 21.7081 7.79335 21.6181 7.51449C21.5282 7.23563 21.3532 6.99191 21.1178 6.81749C20.8824 6.64308 20.5982 6.54673 20.3053 6.54195L14.6153 6.32699C14.5874 6.32506 14.5605 6.31508 14.5381 6.29826C14.5157 6.28143 14.4986 6.25848 14.4889 6.23216L12.5227 0.92155C12.4239 0.651366 12.2445 0.418065 12.0087 0.253232C11.7729 0.0884004 11.4922 0 11.2045 0C10.9168 0 10.6361 0.0884004 10.4003 0.253232C10.1646 0.418065 9.98514 0.651366 9.88635 0.92155L7.92648 6.25113C7.91679 6.27744 7.8997 6.3004 7.87727 6.31722C7.85484 6.33405 7.82802 6.34403 7.80004 6.34596L2.11009 6.56091C1.81713 6.5657 1.533 6.66205 1.29756 6.83646C1.06212 7.01087 0.887171 7.2546 0.797239 7.53346C0.707306 7.81232 0.706902 8.11233 0.796085 8.39144C0.885267 8.67054 1.05956 8.91473 1.29453 9.08977L5.75798 12.5986C5.78032 12.6161 5.79702 12.6399 5.806 12.6669C5.81499 12.6938 5.81588 12.7228 5.80856 12.7503L4.27227 18.1937C4.19266 18.4709 4.20038 18.7659 4.29436 19.0385C4.38835 19.3112 4.56404 19.5482 4.79755 19.7175C5.03105 19.8867 5.31103 19.98 5.59939 19.9845C5.88775 19.989 6.1705 19.9045 6.40916 19.7426L11.1255 16.5815C11.1487 16.5655 11.1763 16.5569 11.2045 16.5569C11.2328 16.5569 11.2603 16.5655 11.2836 16.5815L15.9999 19.7426C16.2353 19.91 16.5171 20 16.806 20C17.0949 20 17.3766 19.91 17.612 19.7426C17.8456 19.5749 18.0215 19.339 18.1154 19.0673C18.2094 18.7956 18.2169 18.5014 18.1368 18.2253L16.5878 12.7629C16.5796 12.7355 16.5801 12.7062 16.5891 12.6791C16.5982 12.6519 16.6154 12.6282 16.6384 12.6112L21.1208 9.07081Z" fill="#A0A0A0"/>
</svg>
