<svg width="12" height="9" viewBox="0 0 12 9" fill="none" xmlns="http://www.w3.org/2000/svg">
<path d="M6.00018 6.00038C6.88386 6.00038 7.60022 5.28402 7.60022 4.40034C7.60022 3.51666 6.88386 2.80029 6.00018 2.80029C5.1165 2.80029 4.40013 3.51666 4.40013 4.40034C4.40013 5.28402 5.1165 6.00038 6.00018 6.00038Z" fill="white"/>
<path d="M11.9762 4.26412C11.5057 3.04715 10.6889 1.9947 9.62682 1.23687C8.56472 0.479036 7.30383 0.0490306 6 0C4.69617 0.0490306 3.43528 0.479036 2.37318 1.23687C1.31107 1.9947 0.494308 3.04715 0.0238305 4.26412C-0.0079435 4.35201 -0.0079435 4.44824 0.0238305 4.53613C0.494308 5.7531 1.31107 6.80555 2.37318 7.56338C3.43528 8.32121 4.69617 8.75122 6 8.80025C7.30383 8.75122 8.56472 8.32121 9.62682 7.56338C10.6889 6.80555 11.5057 5.7531 11.9762 4.53613C12.0079 4.44824 12.0079 4.35201 11.9762 4.26412ZM6 7.0002C5.48575 7.0002 4.98306 6.84771 4.55548 6.56201C4.1279 6.27631 3.79464 5.87023 3.59785 5.39513C3.40105 4.92003 3.34956 4.39724 3.44989 3.89288C3.55021 3.38851 3.79784 2.92522 4.16147 2.56159C4.5251 2.19797 4.98839 1.95034 5.49275 1.85001C5.99712 1.74969 6.5199 1.80118 6.995 1.99797C7.47011 2.19476 7.87618 2.52802 8.16188 2.9556C8.44758 3.38318 8.60007 3.88588 8.60007 4.40012C8.59902 5.08938 8.32474 5.75011 7.83736 6.23749C7.34998 6.72486 6.68926 6.99914 6 7.0002Z" fill="white"/>
</svg>
