<svg width="12" height="10" viewBox="0 0 12 10" fill="none" xmlns="http://www.w3.org/2000/svg">
<path d="M0.545455 0.792825L1.24364 0.100098L10.3636 9.2201L9.67091 9.91828L7.99091 8.23828C7.36364 8.44555 6.69818 8.55464 6 8.55464C3.27273 8.55464 0.943636 6.85828 0 4.46373C0.376364 3.50373 0.976364 2.65828 1.74 1.98737L0.545455 0.792825ZM6 2.82737C6.43399 2.82737 6.85021 2.99977 7.15708 3.30665C7.46396 3.61353 7.63636 4.02974 7.63636 4.46373C7.63664 4.6495 7.60528 4.83395 7.54364 5.00919L5.45455 2.9201C5.62978 2.85845 5.81424 2.82709 6 2.82737ZM6 0.372825C8.72727 0.372825 11.0564 2.06919 12 4.46373C11.5548 5.59457 10.7983 6.57612 9.81818 7.29464L9.04364 6.51464C9.79794 5.99285 10.4063 5.28685 10.8109 4.46373C10.3699 3.5637 9.68532 2.80543 8.83487 2.2751C7.98442 1.74477 7.00225 1.46367 6 1.46373C5.40545 1.46373 4.82182 1.56192 4.27636 1.73646L3.43636 0.901916C4.22182 0.563734 5.08909 0.372825 6 0.372825ZM1.18909 4.46373C1.63006 5.36377 2.31467 6.12204 3.16513 6.65237C4.01558 7.18269 4.99775 7.4638 6 7.46373C6.37636 7.46373 6.74727 7.42555 7.09091 7.34919L5.84727 6.1001C5.46773 6.05941 5.11354 5.89003 4.84362 5.62011C4.5737 5.35019 4.40432 4.99601 4.36364 4.61646L2.50909 2.75646C1.96909 3.2201 1.51636 3.79828 1.18909 4.46373Z" fill="#FF4B00"/>
</svg>
