<svg width="11" height="11" viewBox="0 0 11 11" fill="none" xmlns="http://www.w3.org/2000/svg">
<path d="M6.14706 0C5.88964 0 5.64277 0.102259 5.46075 0.284282C5.27873 0.466304 5.17647 0.71318 5.17647 0.970598V4.20593C5.17647 4.46335 5.27873 4.71022 5.46075 4.89224C5.64277 5.07427 5.88964 5.17653 6.14706 5.17653H10.0294C10.2868 5.17653 10.5337 5.07427 10.7157 4.89224C10.8977 4.71022 11 4.46335 11 4.20593V0.970598C11 0.71318 10.8977 0.466304 10.7157 0.284282C10.5337 0.102259 10.2868 0 10.0294 0H6.14706ZM6.79412 3.23533H9.38235C9.46816 3.23533 9.55045 3.26941 9.61112 3.33009C9.6718 3.39076 9.70588 3.47305 9.70588 3.55886C9.70588 3.64467 9.6718 3.72696 9.61112 3.78763C9.55045 3.84831 9.46816 3.88239 9.38235 3.88239H6.79412C6.70831 3.88239 6.62602 3.84831 6.56535 3.78763C6.50467 3.72696 6.47059 3.64467 6.47059 3.55886C6.47059 3.47305 6.50467 3.39076 6.56535 3.33009C6.62602 3.26941 6.70831 3.23533 6.79412 3.23533ZM6.47059 1.61766C6.47059 1.53186 6.50467 1.44957 6.56535 1.38889C6.62602 1.32822 6.70831 1.29413 6.79412 1.29413H9.38235C9.46816 1.29413 9.55045 1.32822 9.61112 1.38889C9.6718 1.44957 9.70588 1.53186 9.70588 1.61766C9.70588 1.70347 9.6718 1.78576 9.61112 1.84644C9.55045 1.90711 9.46816 1.9412 9.38235 1.9412H6.79412C6.70831 1.9412 6.62602 1.90711 6.56535 1.84644C6.50467 1.78576 6.47059 1.70347 6.47059 1.61766ZM1.68235 1.29413H4.52941V4.20593C4.52941 4.63496 4.69984 5.04642 5.00321 5.34979C5.30658 5.65316 5.71803 5.82359 6.14706 5.82359H10.0294C10.1401 5.82359 10.2481 5.81259 10.3529 5.79124V7.29631C10.3529 8.21385 9.59976 8.95668 8.67059 8.95668H5.70059L3.10524 10.8726C2.96749 10.9742 2.79539 11.0176 2.62596 10.9935C2.45654 10.9694 2.30335 10.8798 2.19935 10.7439C2.11599 10.634 2.07077 10.5 2.07059 10.3621V8.95668H1.68235C0.753176 8.95668 0 8.2132 0 7.29631V2.9545C0 2.03761 0.753176 1.29413 1.68235 1.29413Z" fill="#A0A0A0"/>
</svg>
