<svg width="45" height="53" viewBox="0 0 45 53" fill="none" xmlns="http://www.w3.org/2000/svg">
<path d="M2.92065 10.8657C2.41218 10.8657 1.99999 10.4535 1.99999 9.94508C1.99999 9.43661 2.41218 9.02441 2.92065 9.02441C3.42911 9.02441 3.84131 9.43661 3.84131 9.94508C3.84131 10.4535 3.42911 10.8657 2.92065 10.8657Z" fill="#E1E4E5"/>
<path d="M15.0404 3.44553C14.3651 3.44553 13.8177 2.89808 13.8177 2.22277C13.8177 1.54745 14.3651 1 15.0404 1C15.7157 1 16.2632 1.54745 16.2632 2.22277C16.2632 2.89808 15.7157 3.44553 15.0404 3.44553Z" fill="#E1E4E5"/>
<path fill-rule="evenodd" clip-rule="evenodd" d="M42.5403 44.9116V14.9526C42.5403 13.5315 42.0691 12.1665 41.2341 11.1636L34.918 3.57726C34.0807 2.57169 32.9443 2.00586 31.761 2.00586H6.81789C4.35084 2.00586 2.35254 4.40595 2.35254 7.36905V44.9116C2.35254 47.8747 4.35084 50.2748 6.81789 50.2748H38.0749C40.542 50.2748 42.5403 47.8747 42.5403 44.9116Z" fill="#060606" stroke="#060606" stroke-width="4" stroke-linecap="round" stroke-linejoin="round"/>
<path fill-rule="evenodd" clip-rule="evenodd" d="M29.3867 38.4016C29.3867 36.1814 31.213 34.3794 33.4633 34.3794C35.7136 34.3794 37.5399 36.1814 37.5399 38.4016C37.5399 40.6219 35.7136 42.4239 33.4633 42.4239C31.213 42.4239 29.3867 40.6219 29.3867 38.4016Z" fill="white"/>
<path d="M9.92725 19.534H35.0392M9.92725 28.9509H35.0392M9.92725 38.3475H24.3856M9.92725 11.605H21.7766" stroke="white" stroke-width="4" stroke-linecap="round" stroke-linejoin="round"/>
</svg>
