<svg width="50" height="49" viewBox="0 0 50 49" fill="none" xmlns="http://www.w3.org/2000/svg">
<path d="M35.8049 13.3108V8.15536C35.8049 5.30702 33.4948 3 30.6426 3H19.42C16.5679 3 14.2578 5.30702 14.2578 8.15536V13.3108" stroke="#060606" stroke-width="5.31" stroke-linecap="round" stroke-linejoin="round"/>
<path fill-rule="evenodd" clip-rule="evenodd" d="M6.91223 46.9291H43.0884C45.9438 46.9291 48.2565 44.6164 48.2565 41.7612V23.9226L34.6039 32.9319L34.6033 32.9322L34.6025 32.9327C33.0672 33.9465 31.268 34.4868 29.4282 34.4866H20.5723C18.7325 34.4868 16.9333 33.9465 15.398 32.9327L15.3972 32.9322L15.3966 32.9319L1.74414 23.9226V41.7612C1.74414 44.6164 4.05687 46.9291 6.91223 46.9291ZM2.57957 15.6856C3.5015 14.2713 5.09717 13.3369 6.91223 13.3369H43.0884C44.9035 13.3369 46.4991 14.2713 47.4211 15.6856L30.5625 26.8104L30.5611 26.8114C30.225 27.0334 29.831 27.1516 29.4282 27.1514H20.5723C20.1685 27.1514 19.7752 27.0332 19.4394 26.8114L19.4381 26.8104L2.57957 15.6856Z" fill="#060606"/>
<path d="M48.2562 23.9213H50C50 23.6063 49.9147 23.2973 49.7532 23.027C49.5916 22.7566 49.3599 22.5351 49.0826 22.3858C48.8053 22.2365 48.4927 22.1652 48.1781 22.1792C47.8635 22.1933 47.5586 22.2923 47.2957 22.4657L48.2562 23.9213ZM34.6036 32.9305L35.5628 34.3868L35.5641 34.3859L34.6036 32.9305ZM34.603 32.9309L33.6437 31.4747L33.6411 31.4763L34.603 32.9309ZM34.6022 32.9314L35.5631 34.3867L35.5641 34.3859L34.6022 32.9314ZM15.3977 32.9314L16.3585 31.4762L16.3572 31.4754L15.3977 32.9314ZM15.3969 32.9309L14.4346 34.3851L14.4373 34.387L15.3969 32.9309ZM15.3963 32.9305L16.3585 31.4762L16.3567 31.475L15.3963 32.9305ZM1.7438 23.9213L2.70427 22.4659C2.44144 22.2923 2.1365 22.1932 1.82186 22.1791C1.50721 22.1649 1.19461 22.2363 0.917264 22.3855C0.639918 22.5348 0.408183 22.7564 0.246678 23.0268C0.085172 23.2972 -7.27815e-05 23.6063 4.6626e-08 23.9213H1.7438ZM2.57923 15.6842L1.11835 14.7321C0.594632 15.5357 0.818182 16.6114 1.61876 17.1398L2.57923 15.6842ZM47.4208 15.6842L48.3811 17.1398C49.1818 16.6114 49.4054 15.5357 48.8815 14.732L47.4208 15.6842ZM30.5622 26.8091L31.5211 28.2656L31.5227 28.2646L30.5622 26.8091ZM30.5608 26.8101L29.6018 25.3537C29.6011 25.3541 29.6004 25.3545 29.5997 25.355L30.5608 26.8101ZM19.4391 26.8101L20.4003 25.355L20.399 25.3542L19.4391 26.8101ZM19.4378 26.8091L18.4773 28.2646L18.4779 28.265L19.4378 26.8091ZM43.0881 45.184H6.91189V48.6716H43.0881V45.184ZM46.5124 41.7598C46.5124 43.6521 44.9804 45.184 43.0881 45.184V48.6716C46.9066 48.6716 50 45.5782 50 41.7598H46.5124ZM46.5124 23.9213V41.7598H50V23.9213H46.5124ZM47.2957 22.4657L33.6431 31.475L35.5641 34.3859L49.2167 25.3767L47.2957 22.4657ZM33.6445 31.4742L33.6437 31.4747L35.5622 34.3871L35.5628 34.3868L33.6445 31.4742ZM33.6411 31.4763L33.6404 31.4769L35.5641 34.3859L35.5649 34.3855L33.6411 31.4763ZM33.6414 31.4762C32.3912 32.3017 30.926 32.7417 29.4279 32.7415V36.2291C31.6093 36.2293 33.7427 35.5886 35.5631 34.3867L33.6414 31.4762ZM29.4279 32.7415H20.572V36.2291H29.4279V32.7415ZM20.572 32.7415C19.0739 32.7417 17.6087 32.3017 16.3585 31.4762L14.4369 34.3867C16.2572 35.5886 18.3906 36.2293 20.572 36.2291V32.7415ZM16.3572 31.4754L16.3564 31.4748L14.4373 34.387L14.4382 34.3875L16.3572 31.4754ZM16.3591 31.4767L16.3585 31.4762L14.434 34.3848L14.4346 34.3851L16.3591 31.4767ZM16.3567 31.475L2.70427 22.4659L0.783323 25.3767L14.4359 34.3859L16.3567 31.475ZM3.4876 41.7598V23.9213H4.6626e-08V41.7598H3.4876ZM6.91189 45.184C5.01962 45.184 3.4876 43.6521 3.4876 41.7598H4.6626e-08C4.6626e-08 45.5782 3.09343 48.6716 6.91189 48.6716V45.184ZM4.04011 16.6365C4.65342 15.6954 5.71038 15.0794 6.91189 15.0794V11.5918C4.48328 11.5918 2.34878 12.8446 1.11835 14.7321L4.04011 16.6365ZM6.91189 15.0794H43.0881V11.5918H6.91189V15.0794ZM43.0881 15.0794C44.2896 15.0794 45.3465 15.6954 45.9599 16.6365L48.8815 14.732C47.6512 12.8445 45.5167 11.5918 43.0881 11.5918V15.0794ZM31.5227 28.2646L48.3811 17.1398L46.4603 14.2288L29.6017 25.3537L31.5227 28.2646ZM31.5197 28.2665L31.5211 28.2656L29.6031 25.3528L29.6018 25.3537L31.5197 28.2665ZM29.4279 28.8939C30.1733 28.8939 30.9008 28.6753 31.5218 28.2651L29.5997 25.355C29.5493 25.3883 29.4902 25.4063 29.4279 25.4063V28.8939ZM20.572 28.8939H29.4279V25.4063H20.572V28.8939ZM18.478 28.2651C19.0993 28.6754 19.8275 28.8941 20.572 28.8939V25.4063C20.5109 25.4065 20.4512 25.3887 20.4003 25.355L18.478 28.2651ZM18.4779 28.265L18.4794 28.2659L20.399 25.3542L20.3976 25.3534L18.4779 28.265ZM1.61876 17.1398L18.4773 28.2646L20.3982 25.3537L3.5397 14.2288L1.61876 17.1398Z" fill="#060606"/>
<path d="M42.6187 46.4784C43.5793 46.4796 44.9617 46.2294 46.094 45.1381C47.2261 44.0466 46.5897 43.3683 45.4656 43.2454C44.3417 43.1224 42.9936 43.6351 42.1208 44.7327C41.248 45.8305 41.8304 46.4776 42.6187 46.4784Z" fill="url(#paint0_linear_287_1296)"/>
<path d="M8.96527 42.4341L5.82431 45.5751C5.70992 45.6895 5.70992 45.875 5.82431 45.9893C5.9387 46.1037 6.12416 46.1037 6.23855 45.9893L9.37951 42.8484C9.4939 42.734 9.49391 42.5485 9.37952 42.4341C9.26513 42.3198 9.07966 42.3198 8.96527 42.4341Z" fill="white"/>
<path d="M11.5375 42.4341L8.39657 45.5751C8.28218 45.6895 8.28218 45.875 8.39657 45.9893C8.51096 46.1037 8.69643 46.1037 8.81081 45.9893L11.9518 42.8484C12.0662 42.734 12.0662 42.5485 11.9518 42.4341C11.8374 42.3198 11.6519 42.3198 11.5375 42.4341Z" fill="white"/>
<path d="M14.268 42.4341L11.127 45.5751C11.0127 45.6895 11.0127 45.875 11.127 45.9893C11.2414 46.1037 11.4269 46.1037 11.5413 45.9893L14.6822 42.8484C14.7966 42.734 14.7966 42.5485 14.6823 42.4341C14.5679 42.3198 14.3824 42.3198 14.268 42.4341Z" fill="white"/>
<defs>
<linearGradient id="paint0_linear_287_1296" x1="47.6959" y1="46.8375" x2="38.9572" y2="41.9037" gradientUnits="userSpaceOnUse">
<stop stop-color="white"/>
<stop offset="1" stop-color="#EEEEEE"/>
</linearGradient>
</defs>
</svg>
