<svg width="40" height="40" viewBox="0 0 40 40" fill="none" xmlns="http://www.w3.org/2000/svg">
<circle cx="20" cy="20" r="20" fill="#060606"/>
<path d="M26.161 14.3105C26.2603 14.2122 26.3788 14.1341 26.5095 14.0808C26.6403 14.0275 26.7807 14 26.9225 14C27.0643 14 27.2047 14.0275 27.3354 14.0808C27.4662 14.1341 27.5847 14.2122 27.6839 14.3105C28.1 14.7185 28.1058 15.3779 27.6985 15.793L19.0976 25.6619C18.9999 25.766 18.8814 25.8496 18.7493 25.9077C18.6172 25.9658 18.4743 25.9972 18.3293 25.9998C18.1843 26.0025 18.0402 25.9764 17.906 25.9231C17.7717 25.8699 17.6501 25.7906 17.5485 25.6901L12.3149 20.5425C12.1131 20.3427 12 20.074 12 19.7942C12 19.5144 12.1131 19.2457 12.3149 19.0459C12.4142 18.9476 12.5327 18.8695 12.6634 18.8162C12.7942 18.7629 12.9346 18.7354 13.0764 18.7354C13.2182 18.7354 13.3586 18.7629 13.4893 18.8162C13.6201 18.8695 13.7386 18.9476 13.8378 19.0459L18.2772 23.4128L26.1319 14.3416C26.141 14.3307 26.1507 14.3203 26.161 14.3105Z" fill="white"/>
</svg>
