<svg width="52" height="50" viewBox="0 0 52 50" fill="none" xmlns="http://www.w3.org/2000/svg">
<path d="M10.3594 11.3791L8.49358 3H3.09766" stroke="#060606" stroke-width="5" stroke-linecap="round" stroke-linejoin="round"/>
<path fill-rule="evenodd" clip-rule="evenodd" d="M15.3316 34.4367L10.3594 11.3789H46.0794C47.877 11.3789 49.2145 13.0274 48.8393 14.7771L44.6007 34.4367C44.3214 35.7314 43.1729 36.6555 41.8409 36.6555H18.0887C16.7595 36.6555 15.611 35.7314 15.3316 34.4367Z" fill="#060606" stroke="#060606" stroke-width="5" stroke-linecap="round" stroke-linejoin="round"/>
<path d="M18.872 43.9521C18.1203 43.9521 17.5103 44.5621 17.5176 45.3137C17.514 46.0652 18.124 46.6752 18.8755 46.6752C19.6272 46.6752 20.2372 46.0652 20.2372 45.3137C20.2372 44.5621 19.6272 43.9521 18.872 43.9521M40.6555 43.9521C39.9038 43.9521 39.2938 44.5621 39.3011 45.3137C39.3011 46.0652 39.9111 46.6752 40.6627 46.6752C41.4143 46.6752 42.0243 46.0652 42.0243 45.3137C42.0207 44.5621 41.4107 43.9521 40.6555 43.9521Z" stroke="#060606" stroke-width="5" stroke-linecap="round" stroke-linejoin="round"/>
<path d="M39.1271 18.082H20.1348C19.3635 18.082 18.7383 18.7073 18.7383 19.4785V20.0371C18.7383 20.8083 19.3635 21.4336 20.1348 21.4336H39.1271C39.8984 21.4336 40.5237 20.8083 40.5237 20.0371V19.4785C40.5237 18.7073 39.8984 18.082 39.1271 18.082Z" fill="white"/>
<path d="M39.1271 26.042H20.1348C19.3635 26.042 18.7383 26.6672 18.7383 27.4385V27.997C18.7383 28.7683 19.3635 29.3935 20.1348 29.3935H39.1271C39.8984 29.3935 40.5237 28.7683 40.5237 27.997V27.4385C40.5237 26.6672 39.8984 26.042 39.1271 26.042Z" fill="white"/>
</svg>
