<svg width="15" height="11" viewBox="0 0 15 11" fill="none" xmlns="http://www.w3.org/2000/svg">
<path d="M7.50012 2.98389C6.9078 2.9878 6.34084 3.22483 5.922 3.64368C5.50315 4.06252 5.26612 4.62948 5.26221 5.2218C5.26221 6.44669 6.27524 7.45972 7.50012 7.45972C8.72426 7.45972 9.73804 6.44669 9.73804 5.2218C9.73804 3.99766 8.72426 2.98389 7.50012 2.98389Z" fill="#060606"/>
<path d="M7.5 0C1.806 0 0.0947385 4.93609 0.079073 4.98607L0 5.2218L0.0783271 5.45753C0.0947385 5.50751 1.806 10.4436 7.5 10.4436C13.194 10.4436 14.9053 5.50751 14.9209 5.45753L15 5.2218L14.9217 4.98607C14.9053 4.93609 13.194 0 7.5 0ZM7.5 8.95166C3.5083 8.95166 1.96191 6.08265 1.58743 5.2218C1.9634 4.35797 3.51054 1.49194 7.5 1.49194C11.4917 1.49194 13.0381 4.36095 13.4126 5.2218C13.0366 6.08564 11.4895 8.95166 7.5 8.95166Z" fill="#060606"/>
</svg>
