<svg width="40" height="36" viewBox="0 0 40 36" fill="none" xmlns="http://www.w3.org/2000/svg">
<path d="M21.3669 16.6044C20.9941 16.2391 20.493 16.0344 19.9711 16.0344C19.4492 16.0344 18.9481 16.2391 18.5754 16.6044L12.5935 22.3868C12.382 22.5614 12.2087 22.7778 12.0845 23.0224C11.9604 23.267 11.8881 23.5346 11.8721 23.8084C11.856 24.0823 11.8967 24.3565 11.9915 24.6139C12.0863 24.8713 12.2332 25.1064 12.423 25.3044C12.6128 25.5024 12.8414 25.6592 13.0945 25.7649C13.3477 25.8705 13.6199 25.9228 13.8942 25.9185C14.1685 25.9141 14.4389 25.8532 14.6885 25.7396C14.9382 25.626 15.1617 25.4621 15.3452 25.2581L17.9572 22.7258V33.9716C17.9572 34.5004 18.1673 35.0076 18.5412 35.3815C18.9152 35.7555 19.4223 35.9656 19.9512 35.9656C20.48 35.9656 20.9872 35.7555 21.3611 35.3815C21.735 35.0076 21.9451 34.5004 21.9451 33.9716V22.8255L24.5173 25.4176C24.7027 25.6045 24.9232 25.7528 25.1662 25.8541C25.4092 25.9553 25.6698 26.0074 25.933 26.0074C26.1962 26.0074 26.4568 25.9553 26.6998 25.8541C26.9428 25.7528 27.1633 25.6045 27.3487 25.4176C27.5356 25.2323 27.6839 25.0117 27.7851 24.7687C27.8864 24.5258 27.9385 24.2651 27.9385 24.0019C27.9385 23.7387 27.8864 23.4781 27.7851 23.2351C27.6839 22.9921 27.5356 22.7716 27.3487 22.5862L21.3669 16.6044Z" fill="#FF4B00"/>
<path d="M31.2575 8.05069C30.4439 5.69994 28.9177 3.66126 26.8914 2.21834C24.8651 0.775412 22.4394 0 19.9518 0C17.4643 0 15.0386 0.775412 13.0123 2.21834C10.986 3.66126 9.45982 5.69994 8.64621 8.05069C6.85476 8.29063 5.16223 9.01307 3.74969 10.1407C2.33715 11.2684 1.25773 12.7588 0.626912 14.4526C-0.0039082 16.1464 -0.162401 17.9798 0.168388 19.7567C0.499178 21.5337 1.3068 23.1872 2.50487 24.5406C2.64959 24.7955 2.84873 25.0153 3.08812 25.1845C3.3275 25.3537 3.60124 25.468 3.88984 25.5193C4.17844 25.5706 4.47481 25.5577 4.75783 25.4814C5.04085 25.4051 5.30357 25.2673 5.52729 25.0779C5.751 24.8885 5.9302 24.6521 6.05212 24.3855C6.17405 24.119 6.2357 23.8288 6.2327 23.5357C6.22969 23.2426 6.16209 22.9537 6.03472 22.6897C5.90735 22.4257 5.72334 22.193 5.49578 22.0083C4.72436 21.1458 4.21963 20.0781 4.04277 18.9346C3.86592 17.7911 4.02452 16.6208 4.49936 15.5656C4.9742 14.5104 5.7449 13.6156 6.71805 12.9895C7.69121 12.3635 8.82504 12.0332 9.98215 12.0386H10.1815C10.648 12.048 11.103 11.8935 11.4674 11.602C11.8317 11.3106 12.0823 10.9006 12.1755 10.4434C12.5416 8.64043 13.5198 7.01946 14.9443 5.85516C16.3687 4.69085 18.1519 4.05481 19.9917 4.05481C21.8315 4.05481 23.6147 4.69085 25.0392 5.85516C26.4637 7.01946 27.4419 8.64043 27.808 10.4434C27.9012 10.9006 28.1518 11.3106 28.5161 11.602C28.8804 11.8935 29.3354 12.048 29.8019 12.0386H29.9215C31.0787 12.0332 32.2125 12.3635 33.1856 12.9895C34.1588 13.6156 34.9295 14.5104 35.4043 15.5656C35.8792 16.6208 36.0378 17.7911 35.8609 18.9346C35.6841 20.0781 35.1793 21.1458 34.4079 22.0083C34.2323 22.2052 34.0975 22.4351 34.0113 22.6846C33.9252 22.934 33.8895 23.1981 33.9062 23.4615C33.9228 23.7248 33.9917 23.9823 34.1086 24.2188C34.2255 24.4554 34.3883 24.6664 34.5874 24.8397C34.9509 25.1602 35.4187 25.3374 35.9034 25.3381C36.1865 25.3378 36.4663 25.2771 36.7241 25.1603C36.982 25.0434 37.212 24.8729 37.3988 24.6602C38.6301 23.3092 39.4663 21.6457 39.8159 19.8515C40.1656 18.0573 40.0152 16.2016 39.3813 14.4871C38.7473 12.7726 37.6543 11.2654 36.2215 10.1302C34.7888 8.99509 33.0715 8.27569 31.2575 8.05069Z" fill="#FF4B00"/>
</svg>
