<svg width="25" height="26" viewBox="0 0 25 26" fill="none" xmlns="http://www.w3.org/2000/svg">
<path fill-rule="evenodd" clip-rule="evenodd" d="M12.5 0.666748C5.59625 0.666748 0 6.263 0 13.1667C0 15.5292 0.65625 17.7417 1.7975 19.6267L0.6825 23.4167C0.618481 23.6344 0.614268 23.8652 0.670305 24.085C0.726343 24.3048 0.84056 24.5054 1.00095 24.6658C1.16134 24.8262 1.36198 24.9404 1.58177 24.9964C1.80156 25.0525 2.0324 25.0483 2.25 24.9842L6.04 23.8692C7.98835 25.0481 10.2228 25.6698 12.5 25.6667C19.4037 25.6667 25 20.0705 25 13.1667C25 6.263 19.4037 0.666748 12.5 0.666748ZM9.6725 15.9955C12.2013 18.523 14.615 18.8567 15.4675 18.888C16.7638 18.9355 18.0262 17.9455 18.5175 16.7967C18.5795 16.6538 18.602 16.4969 18.5827 16.3423C18.5633 16.1878 18.5028 16.0412 18.4075 15.918C17.7225 15.043 16.7962 14.4142 15.8913 13.7892C15.7023 13.6586 15.4701 13.6062 15.2433 13.643C15.0166 13.6798 14.8129 13.803 14.675 13.9867L13.925 15.1305C13.8856 15.192 13.8241 15.2361 13.7532 15.2537C13.6824 15.2714 13.6074 15.2613 13.5437 15.2255C13.035 14.9342 12.2938 14.4392 11.7613 13.9067C11.2288 13.3742 10.7638 12.6667 10.5025 12.1905C10.4701 12.13 10.4607 12.0598 10.4761 11.9929C10.4915 11.926 10.5307 11.867 10.5863 11.8267L11.7412 10.9692C11.9061 10.8259 12.0125 10.627 12.0401 10.4103C12.0678 10.1937 12.0148 9.97438 11.8912 9.79425C11.3312 8.97425 10.6788 7.93175 9.7325 7.2405C9.61038 7.152 9.46733 7.09682 9.31742 7.08038C9.1675 7.06395 9.01589 7.08682 8.8775 7.14675C7.7275 7.63925 6.7325 8.90175 6.78 10.2005C6.81125 11.053 7.145 13.4667 9.6725 15.9955Z" fill="#FF4B00"/>
</svg>
