<svg width="50" height="38" viewBox="0 0 50 38" fill="none" xmlns="http://www.w3.org/2000/svg">
<path fill-rule="evenodd" clip-rule="evenodd" d="M0 3.07412V34.3687C0 36.0673 1.36009 37.4429 3.0397 37.4429H21.4612L29.5026 25.9809C29.8859 25.434 30.8445 25.434 31.228 25.9809L34.0433 29.9947L34.0652 30.026L34.0842 29.9983L40.1222 21.2315C40.5397 20.6245 41.5859 20.6245 42.0034 21.2315L50 32.8435V34.3723V3.07412C50 1.37548 48.6362 0 46.9602 0H3.0397C1.36009 0 0 1.37548 0 3.07412Z" fill="#060606"/>
<path d="M14.1004 23.8758C9.75283 23.8758 6.22852 20.3514 6.22852 16.0038C6.22852 11.6563 9.75283 8.13184 14.1004 8.13184C18.448 8.13184 21.9725 11.6563 21.9725 16.0038C21.9725 20.3514 18.448 23.8758 14.1004 23.8758Z" fill="white"/>
</svg>
