<svg width="31" height="30" viewBox="0 0 31 30" fill="none" xmlns="http://www.w3.org/2000/svg">
<rect x="19.4707" y="2.64709" width="10.5882" height="3.52941" fill="#FF4B00"/>
<rect x="0.941406" y="13.2353" width="14.1176" height="3.52941" fill="#FF4B00"/>
<rect x="14.1768" y="23.8235" width="15.8824" height="3.52941" fill="#FF4B00"/>
<path fill-rule="evenodd" clip-rule="evenodd" d="M13.2944 8.82353C15.7309 8.82353 17.7062 6.84831 17.7062 4.41176C17.7062 1.97521 15.7309 0 13.2944 0C11.4853 0 9.93049 1.08892 9.24971 2.64709H0.941406V6.17651H9.24974C9.93054 7.73464 11.4853 8.82353 13.2944 8.82353Z" fill="#FF4B00"/>
<path fill-rule="evenodd" clip-rule="evenodd" d="M25.2806 16.7648C24.5998 18.3229 23.0451 19.4118 21.236 19.4118C18.7994 19.4118 16.8242 17.4366 16.8242 15C16.8242 12.5635 18.7994 10.5883 21.236 10.5883C23.0451 10.5883 24.5999 11.6772 25.2807 13.2354H30.0599V16.7648H25.2806Z" fill="#FF4B00"/>
<path fill-rule="evenodd" clip-rule="evenodd" d="M7.99996 30C10.4365 30 12.4117 28.0248 12.4117 25.5882C12.4117 23.1517 10.4365 21.1765 7.99996 21.1765C6.19089 21.1765 4.63614 22.2653 3.95533 23.8234H0.941406V27.3528H3.95526C4.63602 28.911 6.19082 30 7.99996 30Z" fill="#FF4B00"/>
</svg>
