<svg width="37" height="35" viewBox="0 0 37 35" fill="none" xmlns="http://www.w3.org/2000/svg">
<path d="M35.7 15.8739C36.1112 15.5676 36.4162 15.1402 36.5723 14.6518C36.7283 14.1634 36.7276 13.6384 36.5703 13.1504C36.4129 12.6624 36.1067 12.2358 35.6947 11.9306C35.2827 11.6254 34.7855 11.4568 34.2728 11.4484L24.3154 11.0722C24.2664 11.0689 24.2195 11.0514 24.1802 11.0219C24.1409 10.9925 24.111 10.9523 24.0941 10.9063L20.6532 1.61271C20.4804 1.13989 20.1664 0.731613 19.7538 0.443157C19.3412 0.154701 18.8499 0 18.3464 0C17.843 0 17.3517 0.154701 16.9391 0.443157C16.5265 0.731613 16.2125 1.13989 16.0396 1.61271L12.6099 10.9395C12.5929 10.9855 12.563 11.0257 12.5238 11.0551C12.4845 11.0846 12.4376 11.102 12.3886 11.1054L2.43119 11.4816C1.9185 11.49 1.42128 11.6586 1.00926 11.9638C0.597242 12.269 0.291076 12.6955 0.133693 13.1835C-0.0236895 13.6716 -0.0243956 14.1966 0.131674 14.685C0.287743 15.1734 0.592761 15.6008 1.00396 15.9071L8.81499 22.0475C8.85409 22.0783 8.8833 22.1198 8.89903 22.167C8.91477 22.2142 8.91632 22.265 8.9035 22.313L6.215 31.8389C6.07569 32.324 6.08918 32.8402 6.25366 33.3174C6.41813 33.7945 6.7256 34.2094 7.13424 34.5056C7.54287 34.8018 8.03283 34.9649 8.53746 34.9728C9.0421 34.9807 9.5369 34.8329 9.95456 34.5496L18.2081 29.0177C18.2488 28.9896 18.297 28.9746 18.3464 28.9746C18.3959 28.9746 18.4441 28.9896 18.4847 29.0177L26.7383 34.5496C27.1503 34.8426 27.6434 35 28.149 35C28.6545 35 29.1476 34.8426 29.5596 34.5496C29.9683 34.2562 30.2761 33.8433 30.4405 33.3678C30.605 32.8923 30.618 32.3775 30.4779 31.8943L27.7673 22.3352C27.7529 22.2872 27.7537 22.2359 27.7695 22.1884C27.7854 22.1409 27.8155 22.0994 27.8558 22.0696L35.7 15.8739Z" fill="#FF4B00" fill-opacity="0.25"/>
</svg>
