<svg width="37" height="35" viewBox="0 0 37 35" fill="none" xmlns="http://www.w3.org/2000/svg">
<path d="M35.7508 15.8739C36.162 15.5676 36.467 15.1402 36.6231 14.6518C36.7791 14.1634 36.7784 13.6384 36.621 13.1504C36.4637 12.6624 36.1575 12.2358 35.7455 11.9306C35.3334 11.6254 34.8362 11.4568 34.3235 11.4484L24.3661 11.0722C24.3172 11.0689 24.2702 11.0514 24.231 11.0219C24.1917 10.9925 24.1618 10.9523 24.1449 10.9063L20.704 1.61271C20.5311 1.13989 20.2171 0.731613 19.8045 0.443157C19.3919 0.154701 18.9007 0 18.3972 0C17.8938 0 17.4025 0.154701 16.9899 0.443157C16.5773 0.731613 16.2633 1.13989 16.0904 1.61271L12.6607 10.9395C12.6437 10.9855 12.6138 11.0257 12.5745 11.0551C12.5353 11.0846 12.4883 11.102 12.4394 11.1054L2.48197 11.4816C1.96928 11.49 1.47207 11.6586 1.06004 11.9638C0.648023 12.269 0.341857 12.6955 0.184474 13.1835C0.0270918 13.6716 0.0263857 14.1966 0.182455 14.685C0.338524 15.1734 0.643542 15.6008 1.05474 15.9071L8.86577 22.0475C8.90487 22.0783 8.93408 22.1198 8.94982 22.167C8.96555 22.2142 8.9671 22.265 8.95428 22.313L6.26578 31.8389C6.12647 32.324 6.13996 32.8402 6.30444 33.3174C6.46891 33.7945 6.77638 34.2094 7.18502 34.5056C7.59365 34.8018 8.08361 34.9649 8.58824 34.9728C9.09288 34.9807 9.58768 34.8329 10.0053 34.5496L18.2589 29.0177C18.2996 28.9896 18.3478 28.9746 18.3972 28.9746C18.4466 28.9746 18.4949 28.9896 18.5355 29.0177L26.7891 34.5496C27.2011 34.8426 27.6942 35 28.1997 35C28.7053 35 29.1984 34.8426 29.6104 34.5496C30.0191 34.2562 30.3269 33.8433 30.4913 33.3678C30.6558 32.8923 30.6688 32.3775 30.5287 31.8943L27.818 22.3352C27.8037 22.2872 27.8045 22.2359 27.8203 22.1884C27.8362 22.1409 27.8663 22.0994 27.9066 22.0696L35.7508 15.8739Z" fill="#FF4B00"/>
</svg>
