<svg width="17" height="18" viewBox="0 0 17 18" fill="none" xmlns="http://www.w3.org/2000/svg">
<path d="M17.0008 8.86512C17.0008 8.15204 16.9429 7.63167 16.8177 7.09204H8.67493V10.3106H13.4545C13.3582 11.1104 12.8378 12.315 11.6815 13.1244L11.6652 13.2321L14.2398 15.2266L14.4182 15.2444C16.0564 13.7315 17.0008 11.5055 17.0008 8.86512Z" fill="white"/>
<path d="M8.67639 17.3458C11.018 17.3458 12.9838 16.5749 14.4197 15.2451L11.6829 13.125C10.9506 13.6358 9.96763 13.9923 8.67639 13.9923C6.38294 13.9923 4.43641 12.4795 3.74252 10.3884L3.64081 10.397L0.963721 12.4688L0.928711 12.5662C2.35488 15.3992 5.28435 17.3458 8.67639 17.3458Z" fill="white"/>
<path d="M3.74083 10.388C3.55775 9.8484 3.45179 9.27018 3.45179 8.67275C3.45179 8.07526 3.55775 7.4971 3.7312 6.95746L3.72635 6.84254L1.01571 4.73743L0.927024 4.77961C0.33923 5.95527 0.00195312 7.27548 0.00195312 8.67275C0.00195312 10.07 0.33923 11.3902 0.927024 12.5658L3.74083 10.388Z" fill="white"/>
<path d="M8.67639 3.35344C10.3049 3.35344 11.4034 4.05689 12.0298 4.64475L14.4775 2.25491C12.9742 0.857642 11.018 0 8.67639 0C5.28435 0 2.35488 1.94654 0.928711 4.77961L3.73289 6.95746C4.43641 4.86637 6.38294 3.35344 8.67639 3.35344Z" fill="white"/>
</svg>
