<svg width="20" height="15" viewBox="0 0 20 15" fill="none" xmlns="http://www.w3.org/2000/svg">
<path d="M18.8929 6.65334C19.3424 7.24125 19.3424 8.03491 18.8929 8.62187C17.4772 10.47 14.0806 14.2752 10.1151 14.2752C6.14965 14.2752 2.75309 10.47 1.33738 8.62187C1.11871 8.34037 1 7.99406 1 7.63761C1 7.28115 1.11871 6.93484 1.33738 6.65334C2.75309 4.80524 6.14965 1 10.1151 1C14.0806 1 17.4772 4.80524 18.8929 6.65334V6.65334Z" stroke="#A0A0A0" stroke-linecap="round" stroke-linejoin="round"/>
<path d="M10.1151 10.4823C11.6862 10.4823 12.9598 9.20867 12.9598 7.6376C12.9598 6.06652 11.6862 4.79291 10.1151 4.79291C8.54406 4.79291 7.27045 6.06652 7.27045 7.6376C7.27045 9.20867 8.54406 10.4823 10.1151 10.4823Z" stroke="#A0A0A0" stroke-linecap="round" stroke-linejoin="round"/>
</svg>
