<svg width="17" height="16" viewBox="0 0 17 16" fill="none" xmlns="http://www.w3.org/2000/svg">
<path d="M16.3131 7.25665C16.501 7.11661 16.6405 6.92126 16.7118 6.69798C16.7832 6.47469 16.7829 6.23468 16.7109 6.01159C16.639 5.7885 16.499 5.59352 16.3106 5.454C16.1223 5.31447 15.895 5.23738 15.6606 5.23356L11.1087 5.06159C11.0863 5.06005 11.0648 5.05207 11.0469 5.0386C11.0289 5.02514 11.0153 5.00678 11.0075 4.98573L9.43456 0.73724C9.35553 0.521093 9.21199 0.334452 9.02337 0.202586C8.83475 0.0707203 8.61017 0 8.38002 0C8.14988 0 7.9253 0.0707203 7.73668 0.202586C7.54806 0.334452 7.40452 0.521093 7.32549 0.73724L5.75759 5.0009C5.74984 5.02195 5.73617 5.04032 5.71822 5.05378C5.70027 5.06724 5.67882 5.07522 5.65644 5.07677L1.10448 5.24873C0.870108 5.25256 0.64281 5.32964 0.454458 5.46917C0.266105 5.6087 0.126143 5.80368 0.0541972 6.02677C-0.0177491 6.24985 -0.0180719 6.48987 0.053274 6.71315C0.12462 6.93643 0.264057 7.13178 0.452033 7.27182L4.02279 10.0789C4.04066 10.0929 4.05402 10.1119 4.06121 10.1335C4.0684 10.1551 4.06911 10.1783 4.06325 10.2002L2.83422 14.5549C2.77054 14.7767 2.77671 15.0127 2.85189 15.2308C2.92708 15.4489 3.06764 15.6386 3.25444 15.774C3.44125 15.9094 3.66523 15.984 3.89592 15.9876C4.12661 15.9912 4.3528 15.9236 4.54374 15.7941L8.3168 13.2652C8.33539 13.2524 8.35744 13.2455 8.38002 13.2455C8.40261 13.2455 8.42466 13.2524 8.44325 13.2652L12.2163 15.7941C12.4047 15.928 12.63 16 12.8612 16C13.0923 16 13.3177 15.928 13.506 15.7941C13.6929 15.66 13.8336 15.4712 13.9088 15.2538C13.9839 15.0365 13.9899 14.8011 13.9258 14.5802L12.6867 10.2104C12.6801 10.1884 12.6805 10.165 12.6877 10.1433C12.695 10.1215 12.7087 10.1026 12.7271 10.089L16.3131 7.25665Z" fill="#FFC702"/>
</svg>
